<?xml version="1.0" standalone="no"?>
<!DOCTYPE svg PUBLIC "-//W3C//DTD SVG 20010904//EN"
 "http://www.w3.org/TR/2001/REC-SVG-20010904/DTD/svg10.dtd">
<svg version="1.0" xmlns="http://www.w3.org/2000/svg"
 width="600.000000pt" height="568.000000pt" viewBox="0 0 600.000000 568.000000"
 preserveAspectRatio="xMidYMid meet">

<g transform="translate(0.000000,568.000000) scale(0.100000,-0.100000)"
fill="#000000" stroke="none">
<path d="M1530 4387 c-800 -709 -1472 -1304 -1493 -1322 l-37 -32 156 -177
c86 -97 157 -176 159 -176 2 0 605 533 1341 1185 736 652 1343 1184 1350 1181
7 -3 606 -530 1331 -1173 725 -642 1326 -1174 1335 -1181 14 -11 36 10 173
165 125 141 154 179 143 188 -8 5 -679 599 -1492 1319 -812 721 -1485 1310
-1494 1311 -10 1 -631 -542 -1472 -1288z"/>
<path d="M890 4740 c0 -308 3 -560 8 -560 12 1 737 660 744 678 4 9 7 113 7
230 l1 212 -380 0 -380 0 0 -560z"/>
<path d="M1945 3724 c-575 -509 -1045 -930 -1045 -934 0 -14 223 -251 234
-248 7 2 420 363 919 803 500 440 912 801 916 803 4 1 54 -41 112 -95 57 -53
325 -294 594 -536 270 -242 624 -562 787 -711 l297 -271 0 -195 c0 -107 -6
-577 -14 -1045 -8 -467 -15 -936 -15 -1041 l0 -192 135 -33 c135 -33 135 -33
170 -15 19 11 43 31 52 45 17 25 18 102 18 1381 l0 1354 -1045 927 c-575 510
-1050 928 -1057 928 -7 1 -483 -416 -1058 -925z"/>
</g>
</svg>
