<?xml version="1.0" standalone="no"?>
<!DOCTYPE svg PUBLIC "-//W3C//DTD SVG 20010904//EN"
 "http://www.w3.org/TR/2001/REC-SVG-20010904/DTD/svg10.dtd">
<svg version="1.0" xmlns="http://www.w3.org/2000/svg"
 width="309.000000pt" height="512.000000pt" viewBox="0 0 309.000000 512.000000"
 preserveAspectRatio="xMidYMid meet">

<g transform="translate(0.000000,512.000000) scale(0.100000,-0.100000)"
fill="#000000" stroke="none">
<path d="M2351 4863 c-40 -8 -115 -67 -134 -105 -10 -20 -20 -59 -24 -88 -4
-35 -27 -92 -73 -183 -37 -73 -86 -168 -109 -212 -44 -87 -150 -325 -199 -445
-45 -112 -168 -365 -213 -435 -70 -111 -192 -395 -209 -485 -8 -42 -13 -62
-40 -168 -6 -24 -8 -48 -4 -53 9 -16 -5 -59 -19 -59 -8 0 -32 -16 -54 -35 -23
-19 -48 -35 -57 -35 -9 0 -19 -7 -23 -16 -3 -8 -12 -13 -20 -10 -7 3 -16 -1
-20 -10 -3 -8 -11 -13 -19 -10 -7 3 -18 -1 -24 -9 -6 -7 -27 -16 -48 -20 -34
-6 -93 -40 -100 -57 -2 -4 -19 -8 -38 -8 -32 0 -33 1 -23 27 17 44 49 251 49
313 0 33 4 61 9 65 5 3 15 22 21 43 7 20 24 55 38 76 15 21 39 75 54 120 28
85 77 156 107 156 10 0 35 13 55 29 21 16 42 31 48 33 21 7 -3 28 -31 28 -53
0 -108 96 -116 201 -3 43 -9 65 -22 75 -16 12 -49 10 -63 -3 -3 -3 -5 -62 -5
-133 0 -102 -3 -132 -16 -146 -9 -11 -25 -35 -37 -54 -11 -19 -37 -51 -57 -70
-78 -74 -148 -199 -175 -312 -31 -130 -56 -200 -76 -215 -16 -11 -17 -18 -7
-53 9 -35 7 -44 -14 -75 -66 -98 -81 -192 -41 -275 11 -25 23 -78 27 -119 l7
-73 -41 6 c-22 4 -55 9 -74 11 -18 3 -41 10 -52 15 -33 18 -64 14 -114 -18
-66 -41 -99 -97 -97 -166 2 -103 63 -171 163 -183 27 -3 49 -9 49 -13 0 -10
85 -31 102 -25 7 3 52 6 99 8 l86 4 14 -33 c7 -19 16 -34 20 -34 6 0 12 -26
29 -155 6 -44 24 -99 48 -150 21 -44 46 -109 55 -145 28 -108 41 -155 47 -160
3 -3 5 -41 6 -85 1 -73 24 -202 67 -370 9 -33 17 -94 18 -135 3 -68 1 -78 -21
-101 -14 -14 -32 -34 -41 -45 -16 -21 11 -18 -791 -96 l-228 -22 0 -83 0 -84
413 4 c382 3 433 6 702 35 477 53 1368 142 1415 142 17 0 20 -7 20 -52 0 -71
9 -82 58 -76 38 6 40 4 46 -23 5 -27 8 -29 56 -29 l50 0 0 66 c0 63 -2 68 -34
99 l-34 32 199 18 199 18 0 134 0 133 -37 -5 c-21 -3 -182 -21 -358 -41 -176
-19 -437 -48 -580 -65 -143 -16 -321 -36 -395 -44 -74 -8 -193 -21 -265 -30
-71 -8 -137 -15 -146 -15 -10 0 -31 21 -48 47 -28 41 -31 55 -31 119 0 41 7
122 16 181 14 91 14 122 4 198 -7 50 -19 108 -27 130 -25 69 -35 127 -38 225
-1 69 -8 112 -25 155 -12 33 -24 76 -27 95 -5 35 -4 35 62 68 80 39 218 148
340 268 83 81 286 348 330 435 18 34 22 39 109 135 144 159 233 414 351 999
20 99 49 232 65 295 16 63 32 135 35 160 14 110 58 379 86 528 19 105 32 142
49 142 5 0 21 18 35 40 31 50 38 139 12 168 -9 10 -17 23 -17 29 0 6 -16 25
-36 43 -27 23 -43 30 -60 26 -21 -6 -24 -3 -24 23 0 16 -6 33 -12 39 -16 13
-76 21 -107 15z m-36 -505 c-47 -199 -175 -649 -217 -763 -22 -60 -60 -154
-84 -207 -24 -53 -46 -108 -50 -122 -8 -32 -26 -35 -19 -3 58 252 128 499 163
578 16 36 37 98 46 137 9 40 27 100 40 135 13 34 31 94 40 132 10 39 26 89 37
112 10 24 19 46 19 49 0 12 42 75 47 70 3 -3 -7 -56 -22 -118z"/>
</g>
</svg>
